<svg width="16" height="16" viewBox="0 0 16 16" fill="none" xmlns="http://www.w3.org/2000/svg">
  <path fill-rule="evenodd" clip-rule="evenodd"
    d="M10.4434 2.05V3.20804H13.6893V2.05H10.4434ZM8.44343 1.57459C8.44343 0.732584 9.12601 0.0500031 9.96802 0.0500031H14.1647C15.0068 0.0500031 15.6893 0.732587 15.6893 1.57459V3.68345C15.6893 4.52545 15.0068 5.20804 14.1647 5.20804H9.96802C9.12601 5.20804 8.44343 4.52545 8.44343 3.68345V1.57459ZM2.04999 2.05V7.39427H5.29589V2.05H2.04999ZM0.0499879 1.57459C0.0499879 0.732586 0.73257 0.0500031 1.57458 0.0500031H5.7713C6.61331 0.0500031 7.29589 0.732586 7.29589 1.57459V7.86968C7.29589 8.71168 6.61331 9.39427 5.7713 9.39427H1.57458C0.73257 9.39427 0.0499879 8.71168 0.0499879 7.86968V1.57459ZM10.4434 8.34509V13.6893H13.6893V8.34509H10.4434ZM8.44343 7.86968C8.44343 7.02767 9.12601 6.34509 9.96802 6.34509H14.1647C15.0068 6.34509 15.6893 7.02767 15.6893 7.86968V14.1648C15.6893 15.0068 15.0068 15.6893 14.1647 15.6893H9.96802C9.12601 15.6893 8.44343 15.0068 8.44343 14.1648V7.86968ZM2.04999 12.5313V13.6893H5.29589V12.5313H2.04999ZM0.0499878 12.0559C0.0499878 11.2139 0.732569 10.5313 1.57458 10.5313H5.7713C6.61331 10.5313 7.29589 11.2139 7.29589 12.0559V14.1648C7.29589 15.0068 6.61331 15.6893 5.7713 15.6893H1.57458C0.732569 15.6893 0.0499878 15.0068 0.0499878 14.1648V12.0559Z"
    fill="black" />
</svg>