<svg width="25" height="19" viewBox="0 0 25 19" xmlns="http://www.w3.org/2000/svg">
<path fill-rule="evenodd" clip-rule="evenodd" d="M12.5 0C13.1904 0 13.75 0.559644 13.75 1.25V8.23223L15.3661 6.61612C15.8543 6.12796 16.6457 6.12796 17.1339 6.61612C17.622 7.10427 17.622 7.89573 17.1339 8.38388L13.4926 12.0251C13.4738 12.044 13.4546 12.0621 13.435 12.0797C13.206 12.3375 12.872 12.5 12.5 12.5C12.128 12.5 11.794 12.3375 11.565 12.0797C11.5454 12.0621 11.5262 12.044 11.5074 12.0251L7.86612 8.38388C7.37796 7.89573 7.37796 7.10427 7.86612 6.61612C8.35427 6.12796 9.14573 6.12796 9.63388 6.61612L11.25 8.23223V1.25C11.25 0.559644 11.8096 0 12.5 0ZM1.25 8.75C1.94036 8.75 2.5 9.30964 2.5 10V15C2.5 15.6904 3.05963 16.25 3.75 16.25H21.25C21.9404 16.25 22.5 15.6904 22.5 15V10C22.5 9.30964 23.0596 8.75 23.75 8.75C24.4404 8.75 25 9.30964 25 10V15C25 17.0711 23.3211 18.75 21.25 18.75H3.75C1.67894 18.75 0 17.0711 0 15V10C0 9.30964 0.559644 8.75 1.25 8.75Z" />
</svg>
