<svg width="17" height="17" viewBox="0 0 17 17" fill="none" xmlns="http://www.w3.org/2000/svg">
  <g clip-path="url(#clip0_343_177)">
    <path
      d="M12.43 16.84H4.43C3.86 16.84 3.32 16.62 2.91 16.21C2.51 15.81 2.28 15.26 2.28 14.7V8.51C2.06 8.41 1.86 8.3 1.66 8.16C1.23 7.86 0.869999 7.49 0.589999 7.05C0.309999 6.61 0.129999 6.12 0.0399994 5.61C-0.0400006 5.1 -0.0300006 4.58 0.0999994 4.07C0.259999 3.42 0.579999 2.83 1.04 2.34C1.5 1.85 2.07 1.5 2.71 1.3C3.34 1.1 4.02 1.08 4.67 1.22C4.92 1.28 5.16 1.36 5.4 1.46C5.63 1.17 5.91 0.91 6.22 0.69C7.52 -0.22 9.33 -0.22 10.63 0.69C10.94 0.91 11.22 1.17 11.45 1.46C11.68 1.36 11.93 1.28 12.18 1.22C12.83 1.08 13.51 1.1 14.14 1.3C14.77 1.5 15.35 1.86 15.81 2.34C16.27 2.82 16.59 3.42 16.75 4.07C16.87 4.58 16.89 5.1 16.81 5.61C16.73 6.12 16.54 6.61 16.26 7.05C15.98 7.49 15.62 7.87 15.19 8.16C14.99 8.3 14.79 8.41 14.57 8.51V14.7C14.57 15.26 14.34 15.82 13.94 16.21C13.54 16.6 13 16.84 12.42 16.84H12.43ZM3.85 3.13C3.67 3.13 3.48 3.16 3.31 3.21C3 3.3 2.73 3.48 2.51 3.71C2.29 3.94 2.14 4.23 2.06 4.54C2 4.79 1.99 5.04 2.03 5.28C2.07 5.53 2.16 5.76 2.3 5.98C2.43 6.19 2.61 6.37 2.82 6.52C3.03 6.66 3.26 6.76 3.5 6.81C3.96 6.91 4.3 7.31 4.3 7.79V14.7C4.3 14.7 4.31 14.77 4.34 14.8C4.37 14.83 4.4 14.84 4.44 14.84H12.43C12.43 14.84 12.5 14.83 12.53 14.8C12.56 14.77 12.57 14.74 12.57 14.7V7.79C12.57 7.32 12.9 6.91 13.37 6.81C13.62 6.76 13.85 6.66 14.06 6.52C14.27 6.38 14.44 6.2 14.58 5.98C14.71 5.77 14.8 5.53 14.84 5.28C14.88 5.03 14.87 4.78 14.81 4.54C14.73 4.23 14.58 3.94 14.36 3.71C14.14 3.48 13.86 3.3 13.56 3.21C13.26 3.12 12.93 3.1 12.62 3.17C12.31 3.24 12.02 3.39 11.78 3.6C11.53 3.82 11.19 3.91 10.87 3.83C10.55 3.75 10.29 3.51 10.17 3.2C10.04 2.84 9.81 2.54 9.5 2.32C8.88 1.88 8.01 1.88 7.38 2.32C7.07 2.54 6.83 2.84 6.7 3.2C6.59 3.51 6.32 3.75 6 3.83C5.68 3.91 5.33 3.83 5.09 3.6C4.85 3.39 4.56 3.24 4.25 3.17C4.12 3.14 3.98 3.13 3.85 3.13Z"
      fill="black" />
    <path
      d="M13.57 12.87H3.29C2.74 12.87 2.29 12.42 2.29 11.87C2.29 11.32 2.74 10.87 3.29 10.87H13.57C14.12 10.87 14.57 11.32 14.57 11.87C14.57 12.42 14.12 12.87 13.57 12.87Z"
      fill="black" />
  </g>
  <defs>
    <clipPath id="clip0_343_177">
      <rect width="16.86" height="16.84" fill="white" />
    </clipPath>
  </defs>
</svg>