<svg width="17" height="17" viewBox="0 0 17 17" fill="none" xmlns="http://www.w3.org/2000/svg">
  <path fill-rule="evenodd" clip-rule="evenodd"
    d="M2.14286 2C2.10497 2 2.06863 2.01505 2.04184 2.04184C2.01505 2.06863 2 2.10497 2 2.14286V14.7143C2 14.7522 2.01505 14.7885 2.04184 14.8153C2.06863 14.8421 2.10497 14.8571 2.14286 14.8571H10.1429C10.1807 14.8571 10.2171 14.8421 10.2439 14.8153C10.2707 14.7885 10.2857 14.7522 10.2857 14.7143V12.4286C10.2857 11.8763 10.7334 11.4286 11.2857 11.4286C11.838 11.4286 12.2857 11.8763 12.2857 12.4286V14.7143C12.2857 15.2826 12.0599 15.8277 11.6581 16.2295C11.2562 16.6314 10.7112 16.8571 10.1429 16.8571H2.14286C1.57454 16.8571 1.02949 16.6314 0.627628 16.2295C0.225765 15.8277 0 15.2826 0 14.7143V2.14286C0 1.57454 0.225765 1.02949 0.627628 0.627628C1.02949 0.225765 1.57454 0 2.14286 0H10.1429C10.7112 0 11.2562 0.225765 11.6581 0.627628C12.0599 1.02949 12.2857 1.57454 12.2857 2.14286V4.42857C12.2857 4.98086 11.838 5.42857 11.2857 5.42857C10.7334 5.42857 10.2857 4.98086 10.2857 4.42857V2.14286C10.2857 2.10497 10.2707 2.06863 10.2439 2.04184C10.2171 2.01505 10.1807 2 10.1429 2H2.14286Z"
    fill="black" />
  <path fill-rule="evenodd" clip-rule="evenodd"
    d="M6.85718 8.42857C6.85718 7.87629 7.30489 7.42857 7.85718 7.42857H15.8572C16.4095 7.42857 16.8572 7.87629 16.8572 8.42857C16.8572 8.98086 16.4095 9.42857 15.8572 9.42857H7.85718C7.30489 9.42857 6.85718 8.98086 6.85718 8.42857Z"
    fill="black" />
  <path fill-rule="evenodd" clip-rule="evenodd"
    d="M12.8643 5.43575C13.2548 5.04523 13.888 5.04523 14.2785 5.43575L16.5642 7.72147C16.9548 8.11199 16.9548 8.74516 16.5642 9.13568L14.2785 11.4214C13.888 11.8119 13.2548 11.8119 12.8643 11.4214C12.4738 11.0309 12.4738 10.3977 12.8643 10.0072L14.4429 8.42857L12.8643 6.84997C12.4738 6.45944 12.4738 5.82628 12.8643 5.43575Z"
    fill="black" />
</svg>