<svg width="19" height="17" viewBox="0 0 19 17" fill="none" xmlns="http://www.w3.org/2000/svg">
  <path fill-rule="evenodd" clip-rule="evenodd"
    d="M8.04837 2V3.13201C6.02979 3.35768 4.13569 4.26174 2.68557 5.71186C0.998045 7.39939 0.0500031 9.68816 0.0500031 12.0747C0.0500031 12.3399 0.15536 12.5943 0.342896 12.7818C0.530433 12.9693 0.784787 13.0747 1.05 13.0747H17.0468C17.312 13.0747 17.5663 12.9693 17.7539 12.7818C17.9414 12.5943 18.0468 12.3399 18.0468 12.0747C18.0468 9.68816 17.0987 7.39939 15.4112 5.71186C13.9611 4.26173 12.067 3.35767 10.0484 3.132V2H10.8942C11.4464 2 11.8942 1.55228 11.8942 1C11.8942 0.447715 11.4464 0 10.8942 0H9.04837H7.2026C6.65031 0 6.2026 0.447715 6.2026 1C6.2026 1.55228 6.65031 2 7.2026 2H8.04837ZM4.09978 7.12608C5.41151 5.81435 7.19034 5.07711 9.04532 5.0763H9.04839C10.9045 5.0763 12.6845 5.81363 13.997 7.12608C15.0714 8.20051 15.7604 9.58833 15.975 11.0747H2.12179C2.33636 9.58833 3.02535 8.20051 4.09978 7.12608ZM18.0468 15.151C18.0468 14.5987 17.5991 14.151 17.0468 14.151H1.05C0.497718 14.151 0.0500031 14.5987 0.0500031 15.151C0.0500031 15.7033 0.497718 16.151 1.05 16.151H17.0468C17.5991 16.151 18.0468 15.7033 18.0468 15.151Z"
    fill="black" />
</svg>