<svg width="20" height="22" viewBox="0 0 20 22" fill="black" xmlns="http://www.w3.org/2000/svg">
<path fill-rule="evenodd" clip-rule="evenodd" d="M7.33211 2.33211C7.09745 2.56676 7 2.82523 7 3V4H13V3C13 2.82523 12.9025 2.56676 12.6679 2.33211C12.4332 2.09745 12.1748 2 12 2H8C7.82523 2 7.56676 2.09745 7.33211 2.33211ZM15 4V3C15 2.17477 14.5975 1.43324 14.0821 0.917893C13.5668 0.402547 12.8252 0 12 0H8C7.17477 0 6.43324 0.402547 5.91789 0.917893C5.40255 1.43324 5 2.17477 5 3V4H1C0.447715 4 0 4.44772 0 5C0 5.55228 0.447715 6 1 6H2V19C2 19.8252 2.40255 20.5668 2.91789 21.0821C3.43324 21.5975 4.17477 22 5 22H15C15.8252 22 16.5668 21.5975 17.0821 21.0821C17.5975 20.5668 18 19.8252 18 19V6H19C19.5523 6 20 5.55228 20 5C20 4.44772 19.5523 4 19 4H15ZM4 6V19C4 19.1748 4.09745 19.4332 4.33211 19.6679C4.56676 19.9025 4.82523 20 5 20H15C15.1748 20 15.4332 19.9025 15.6679 19.6679C15.9025 19.4332 16 19.1748 16 19V6H4ZM8 9C8.55228 9 9 9.44771 9 10V16C9 16.5523 8.55228 17 8 17C7.44772 17 7 16.5523 7 16V10C7 9.44771 7.44772 9 8 9ZM12 9C12.5523 9 13 9.44771 13 10V16C13 16.5523 12.5523 17 12 17C11.4477 17 11 16.5523 11 16V10C11 9.44771 11.4477 9 12 9Z"/>
</svg>
