<svg width="17" height="17" viewBox="0 0 17 17" fill="none" xmlns="http://www.w3.org/2000/svg">
  <path
    d="M11.9071 10.1929C12.2227 10.1929 12.4786 9.93702 12.4786 9.62143C12.4786 9.30584 12.2227 9.05 11.9071 9.05C11.5916 9.05 11.3357 9.30584 11.3357 9.62143C11.3357 9.93702 11.5916 10.1929 11.9071 10.1929Z"
    fill="black" />
  <path
    d="M7.90715 12.4786C8.22274 12.4786 8.47857 12.2227 8.47857 11.9071C8.47857 11.5916 8.22274 11.3357 7.90715 11.3357C7.59156 11.3357 7.33572 11.5916 7.33572 11.9071C7.33572 12.2227 7.59156 12.4786 7.90715 12.4786Z"
    fill="black" />
  <path fill-rule="evenodd" clip-rule="evenodd"
    d="M10.2575 0.187937C10.4756 0.0597111 10.7342 0.0189319 10.9812 0.0738184L11.0841 0.0966755C11.0926 0.0985662 11.1011 0.100568 11.1095 0.10268C12.6219 0.480515 13.9845 1.30736 15.018 2.47441C16.0514 3.64147 16.7074 5.09406 16.8995 6.64105C16.9046 6.68193 16.9071 6.72309 16.9071 6.76429V14.7643C16.9071 15.1811 16.7416 15.5808 16.4469 15.8755C16.1522 16.1702 15.7525 16.3357 15.3357 16.3357H1.62143C1.20466 16.3357 0.804962 16.1702 0.51026 15.8755C0.215559 15.5808 0.0499992 15.1811 0.0499992 14.7643V13.05C0.0499992 12.4977 0.497714 12.05 1.05 12.05C1.65107 12.05 2.14523 12.0351 2.49598 11.8828C2.64102 11.8198 2.72252 11.7476 2.77604 11.6646C2.83122 11.5789 2.90714 11.403 2.90714 11.05C2.90714 10.6934 2.83173 10.5156 2.77722 10.4298C2.72517 10.3478 2.64687 10.2777 2.50632 10.2162C2.16181 10.0654 1.67089 10.05 1.05 10.05C0.497714 10.05 0.0499992 9.60229 0.0499992 9.05V7.05C0.0499992 7.02754 0.0507561 7.00509 0.0522686 6.98267C0.0696809 6.72466 0.150502 6.47492 0.287562 6.25562C0.423461 6.03819 0.610483 5.85734 0.832283 5.72882L10.2575 0.187937ZM2.05 7.76429V8.08348C2.45639 8.12225 2.90033 8.20551 3.30796 8.38385C3.73885 8.57236 4.16055 8.87722 4.46564 9.35775C4.76827 9.83439 4.90714 10.4066 4.90714 11.05C4.90714 11.6971 4.76449 12.2711 4.45718 12.748C4.14819 13.2274 3.72327 13.5302 3.29259 13.7173C2.88843 13.8928 2.4502 13.9759 2.05 14.0151V14.3357H14.9071V7.76429H2.05ZM14.6583 5.76429C14.4153 5.04385 14.0298 4.37533 13.5207 3.80034C12.821 3.01028 11.9178 2.43065 10.9124 2.12293L4.71834 5.76429H14.6583ZM11.9071 10.05C12.1438 10.05 12.3357 9.85813 12.3357 9.62143C12.3357 9.38474 12.1438 9.19286 11.9071 9.19286C11.6704 9.19286 11.4786 9.38474 11.4786 9.62143C11.4786 9.85813 11.6705 10.05 11.9071 10.05ZM10.3357 9.62143C10.3357 8.75356 11.0393 8.05001 11.9071 8.05001C12.775 8.05001 13.4786 8.75356 13.4786 9.62143C13.4786 10.4893 12.775 11.1929 11.9071 11.1929C11.0393 11.1929 10.3357 10.4893 10.3357 9.62143ZM7.90714 12.3357C8.14384 12.3357 8.33571 12.1438 8.33571 11.9071C8.33571 11.6705 8.14384 11.4786 7.90714 11.4786C7.67045 11.4786 7.47857 11.6705 7.47857 11.9071C7.47857 12.1438 7.67045 12.3357 7.90714 12.3357ZM6.33571 11.9071C6.33571 11.0393 7.03927 10.3357 7.90714 10.3357C8.77502 10.3357 9.47857 11.0393 9.47857 11.9071C9.47857 12.775 8.77502 13.4786 7.90714 13.4786C7.03927 13.4786 6.33571 12.775 6.33571 11.9071Z"
    fill="black" />
</svg>